<?xml version="1.0" standalone="no"?>
<!DOCTYPE svg PUBLIC "-//W3C//DTD SVG 20010904//EN" "http://www.w3.org/TR/2001/REC-SVG-20010904/DTD/svg10.dtd">
<svg version="1.0" xmlns="http://www.w3.org/2000/svg"
     width="512pt" height="512pt" viewBox="0 0 512 512"
     preserveAspectRatio="xMidYMid meet">
  <g transform="translate(0,512) scale(0.1,-0.1)" fill="#000000" stroke="none">
    <path d="M2340 4160 c-490 -48 -920 -290 -1210 -680 -240 -322 -350 -712 -310
    -1100 40 -388 210 -740 480 -1000 322 -312 742 -480 1180 -480 438 0 858 168
    1180 480 270 260 440 612 480 1000 40 388 -70 778 -310 1100 -290 390 -720
    632 -1210 680 -96 10 -184 10 -280 0z m300 -420 c160 -20 320 -80 460 -180
    140 -100 260 -240 340 -400 80 -160 120 -320 120 -500 0 -180 -40 -340 -120
    -500 -80 -160 -200 -300 -340 -400 -140 -100 -300 -160 -460 -180 -320 -40
    -640 80 -880 320 -240 240 -360 560 -320 880 20 160 80 320 180 460 100 140
    240 260 400 340 160 80 320 120 500 120 60 0 120 -10 120 -20z"/>
    <path d="M2200 3040 l0 -480 -240 0 -240 0 0 -160 0 -160 240 0 240 0 0 -480
    0 -480 160 0 160 0 0 480 0 480 240 0 240 0 0 160 0 160 -240 0 -240 0 0 480
    0 480 -160 0 -160 0 0 -480z"/>
  </g>
</svg> 